<svg xmlns="http://www.w3.org/2000/svg" width="63" height="63" viewBox="0 0 63 63">
  <g id="Group_1938" data-name="Group 1938" transform="translate(-994 -892)">
    <rect id="Rectangle_2461" data-name="Rectangle 2461" width="63" height="63" rx="12" transform="translate(994 892)" fill="#ada37f" opacity="0.1"/>
    <g id="Group_1516" data-name="Group 1516" transform="translate(999.534 884.074)">
      <path id="Path_5344" data-name="Path 5344" d="M119.723,71.156h3.206v3.206h-3.206Zm0-6.412h3.206v3.206h-3.206Zm0-6.412h3.206v3.206h-3.206Zm-5.225,0,2.02,1.346V58.333Z" transform="translate(-85.744 -26.922)" fill="#ada37f"/>
      <path id="Path_5345" data-name="Path 5345" d="M83.334,25v2.42l3.206,2.132V28.2h14.426V50.646H94.554v3.206h9.617V25Z" transform="translate(-60.574 0)" fill="#ada37f"/>
      <path id="Path_5346" data-name="Path 5346" d="M19.827,47.493l10.948,7.293V72.017H8.334V55.155ZM22.76,68.812h4.809V56.245l-7.742-4.921L11.54,56.6V68.812h4.809V59.194H22.76Z" transform="translate(0 -18.167)" fill="#ada37f"/>
    </g>
  </g>
</svg>
