<svg xmlns="http://www.w3.org/2000/svg" width="63" height="63" viewBox="0 0 63 63">
  <g id="Group_1925" data-name="Group 1925" transform="translate(-638 -187)">
    <rect id="Rectangle_2454" data-name="Rectangle 2454" width="63" height="63" rx="12" transform="translate(638 187)" fill="#89a8cd" opacity="0.1"/>
    <path id="Portal" d="M32.294,42.529H45.058v3.647H32.294Zm0-7.294H50.528v3.647H32.294Zm0-7.294H50.528v3.647H32.294Zm21.881-7.294H46.553a5.449,5.449,0,0,0-10.284,0H28.647a3.2,3.2,0,0,0-.729.073,3.684,3.684,0,0,0-2.626,2.17,3.513,3.513,0,0,0-.292,1.4V49.822a3.741,3.741,0,0,0,.292,1.422,3.864,3.864,0,0,0,.784,1.167,3.662,3.662,0,0,0,1.842,1,4.751,4.751,0,0,0,.729.055H54.175a3.658,3.658,0,0,0,3.647-3.647V24.294A3.658,3.658,0,0,0,54.175,20.647Zm-12.764-.456a1.368,1.368,0,1,1-1.368,1.368A1.378,1.378,0,0,1,41.411,20.191ZM54.175,49.822H28.647V24.294H54.175Z" transform="translate(628.089 183.266)" fill="#89a8cd"/>
  </g>
</svg>
