<svg xmlns="http://www.w3.org/2000/svg" width="63" height="63" viewBox="0 0 63 63">
  <g id="Group_1931" data-name="Group 1931" transform="translate(-1350 -422)">
    <rect id="Rectangle_2459" data-name="Rectangle 2459" width="63" height="63" rx="12" transform="translate(1350 422)" fill="#abc1e6" opacity="0.1"/>
    <g id="Pool_4" data-name="Pool 4" transform="translate(1347.784 413.155)">
      <path id="Path_5321" data-name="Path 5321" d="M50.765,55.69A6.522,6.522,0,0,1,47.048,54.6a3.2,3.2,0,0,0-1.961-.614,3.062,3.062,0,0,0-1.961.614,6.876,6.876,0,0,1-7.434,0,3.2,3.2,0,0,0-1.961-.614,3.061,3.061,0,0,0-1.961.614,6.634,6.634,0,0,1-3.734,1.091A6.522,6.522,0,0,1,24.321,54.6a3.439,3.439,0,0,0-3.921,0,6.634,6.634,0,0,1-3.734,1.091V52.28a3.063,3.063,0,0,0,1.961-.614,6.634,6.634,0,0,1,3.734-1.091,6.522,6.522,0,0,1,3.717,1.091,3.439,3.439,0,0,0,3.921,0,6.634,6.634,0,0,1,3.734-1.091,6.521,6.521,0,0,1,3.717,1.091,3.2,3.2,0,0,0,1.961.614,3.1,3.1,0,0,0,1.961-.614,6.875,6.875,0,0,1,7.434,0,3.063,3.063,0,0,0,1.961.614Zm0-7.672a6.522,6.522,0,0,1-3.717-1.091,3.2,3.2,0,0,0-1.961-.614,3.062,3.062,0,0,0-1.961.614,6.876,6.876,0,0,1-7.434,0,3.2,3.2,0,0,0-1.961-.614,3.061,3.061,0,0,0-1.961.614,6.876,6.876,0,0,1-7.434,0,3.2,3.2,0,0,0-1.961-.614,3.1,3.1,0,0,0-1.961.614,6.748,6.748,0,0,1-3.751,1.091v-3.41a3.063,3.063,0,0,0,1.961-.614,6.875,6.875,0,0,1,7.434,0,3.2,3.2,0,0,0,1.961.614,3.063,3.063,0,0,0,1.961-.614,6.875,6.875,0,0,1,7.434,0,3.2,3.2,0,0,0,1.961.614,3.1,3.1,0,0,0,1.961-.614,6.875,6.875,0,0,1,7.434,0,3.2,3.2,0,0,0,1.961.614v3.41ZM28.038,40.345A3.062,3.062,0,0,0,30,39.731a6.634,6.634,0,0,1,3.734-1.091,6.521,6.521,0,0,1,3.717,1.091,3.2,3.2,0,0,0,1.961.614,3.1,3.1,0,0,0,1.961-.614c.2-.119.443-.256.7-.392L31.124,28.41c-2.643-2.643-5.081-3.427-9.343-3.41v4.262c3.1-.017,4.927.665,6.82,2.557l1.7,1.7-5.541,5.541a9.328,9.328,0,0,1,1.313.665A3.062,3.062,0,0,0,28.038,40.345Z" fill="#abc1e6"/>
      <path id="Path_5322" data-name="Path 5322" d="M120.928,33.525a4.262,4.262,0,1,0-4.262-4.262A4.263,4.263,0,0,0,120.928,33.525Z" transform="translate(-79.54 0)" fill="#abc1e6"/>
    </g>
  </g>
</svg>
