<svg xmlns="http://www.w3.org/2000/svg" width="63" height="63" viewBox="0 0 63 63">
  <g id="Group_2507" data-name="Group 2507" transform="translate(-1353 -336)">
    <rect id="Rectangle_2461" data-name="Rectangle 2461" width="63" height="63" rx="12" transform="translate(1353 336)" fill="#47738e" opacity="0.1"/>
    <path id="balance_FILL0_wght500_GRAD-25_opsz40" d="M4.625,35.167a1.485,1.485,0,0,1-1.063-.417,1.429,1.429,0,0,1-.437-1.083,1.492,1.492,0,0,1,1.5-1.5H18.5V12.583A4.99,4.99,0,0,1,15.417,9.5H9.375l4.667,11.042a5.123,5.123,0,0,1,.291,1.208,2.451,2.451,0,0,1-.041,1.042,4.86,4.86,0,0,1-2.021,2.6,6.1,6.1,0,0,1-3.479,1.021A6.1,6.1,0,0,1,5.312,25.4a4.861,4.861,0,0,1-2.02-2.6,3.5,3.5,0,0,1-.021-1.042,3.668,3.668,0,0,1,.312-1.208L8.208,9.5H6.25a1.573,1.573,0,0,1-1.042-.458A1.416,1.416,0,0,1,4.792,8a1.5,1.5,0,0,1,.437-1.1,1.447,1.447,0,0,1,1.063-.438h9.125a5.2,5.2,0,0,1,1.791-2.4,4.628,4.628,0,0,1,5.584,0,5.2,5.2,0,0,1,1.791,2.4h9.125a1.447,1.447,0,0,1,1.063.438A1.5,1.5,0,0,1,35.208,8a1.416,1.416,0,0,1-.416,1.042A1.573,1.573,0,0,1,33.75,9.5H31.792l4.625,11.042a3.668,3.668,0,0,1,.312,1.208,3.5,3.5,0,0,1-.021,1.042,4.861,4.861,0,0,1-2.02,2.6,6.439,6.439,0,0,1-6.959,0,4.86,4.86,0,0,1-2.021-2.6,2.451,2.451,0,0,1-.041-1.042A4.057,4.057,0,0,1,26,20.542L30.625,9.5H24.583A4.99,4.99,0,0,1,21.5,12.583V32.167H35.375a1.492,1.492,0,0,1,1.5,1.5,1.429,1.429,0,0,1-.437,1.083,1.485,1.485,0,0,1-1.063.417ZM28.083,21.542h6.25l-3.125-7.5Zm-22.375,0h6.209l-3.125-7.5ZM20,9.958a1.863,1.863,0,0,0,1.4-.583,1.989,1.989,0,0,0,0-2.771,1.989,1.989,0,0,0-2.771,0,1.938,1.938,0,0,0,0,2.771A1.881,1.881,0,0,0,20,9.958Z" transform="translate(1364.5 348.354)" fill="#597b90"/>
  </g>
</svg>
