<svg xmlns="http://www.w3.org/2000/svg" width="63" height="63" viewBox="0 0 63 63">
  <g id="Group_1939" data-name="Group 1939" transform="translate(-994 -422)">
    <rect id="Rectangle_2458" data-name="Rectangle 2458" width="63" height="63" rx="12" transform="translate(994 422)" fill="#95434b" opacity="0.1"/>
    <path id="Help" d="M20.316,20.317h29.2v21.9H22.451l-2.135,2.135Zm0-3.65a3.645,3.645,0,0,0-3.632,3.65l-.018,32.85,7.3-7.3h25.55a3.661,3.661,0,0,0,3.65-3.65v-21.9a3.661,3.661,0,0,0-3.65-3.65Zm3.65,18.25h21.9v3.65h-21.9Zm0-5.475h21.9v3.65h-21.9Zm0-5.475h21.9v3.65h-21.9Z" transform="translate(990.334 418.333)" fill="#95434b"/>
  </g>
</svg>
