<svg xmlns="http://www.w3.org/2000/svg" width="63" height="63" viewBox="0 0 63 63">
  <g id="Group_1940" data-name="Group 1940" transform="translate(-1350 -657)">
    <rect id="Rectangle_2461" data-name="Rectangle 2461" width="63" height="63" rx="12" transform="translate(1350 657)" fill="#be3f3f" opacity="0.1"/>
    <g id="Tbilisihotline" transform="translate(1347.292 647.712)">
      <path id="Path_5340" data-name="Path 5340" d="M50,41.173a15.794,15.794,0,1,0-31.575.105A3.452,3.452,0,0,0,16.667,44.3V47.8a3.519,3.519,0,0,0,3.508,3.508,1.759,1.759,0,0,0,1.754-1.754V41.121c0-6.718,5.175-12.595,11.893-12.788A12.292,12.292,0,0,1,46.487,40.612V53.067H34.208a1.754,1.754,0,0,0,0,3.508H46.487A3.519,3.519,0,0,0,50,53.067v-2.14A3.243,3.243,0,0,0,51.75,48.05V44.015A3.23,3.23,0,0,0,50,41.173Z" fill="#be3f3f"/>
      <path id="Path_5341" data-name="Path 5341" d="M68.421,103.508a1.754,1.754,0,1,0-1.754-1.754A1.754,1.754,0,0,0,68.421,103.508Z" transform="translate(-39.475 -59.212)" fill="#be3f3f"/>
      <path id="Path_5342" data-name="Path 5342" d="M118.421,103.508a1.754,1.754,0,1,0-1.754-1.754A1.754,1.754,0,0,0,118.421,103.508Z" transform="translate(-78.95 -59.212)" fill="#be3f3f"/>
      <path id="Path_5343" data-name="Path 5343" d="M71.09,58.824a10.594,10.594,0,0,0-21.015,2.491A14.164,14.164,0,0,0,58.6,50.982,14.1,14.1,0,0,0,71.09,58.824Z" transform="translate(-26.356 -19.737)" fill="#be3f3f"/>
    </g>
  </g>
</svg>
