<svg xmlns="http://www.w3.org/2000/svg" width="63" height="63" viewBox="0 0 63 63">
  <g id="Group_1926" data-name="Group 1926" transform="translate(-994 -187)">
    <rect id="Rectangle_2" data-name="Rectangle 2" width="63" height="63" rx="12" transform="translate(994 187)" fill="#2392ca" opacity="0.1"/>
    <g id="Group_1762" data-name="Group 1762" transform="translate(715.719 62.154)">
      <path id="HR" d="M6.775,61.857a3.388,3.388,0,1,0-3.388-3.388A3.4,3.4,0,0,0,6.775,61.857ZM8.69,63.72a11.828,11.828,0,0,0-1.914-.169,11.774,11.774,0,0,0-4.709.982A3.406,3.406,0,0,0,0,67.667v2.659H7.622V67.6A7.621,7.621,0,0,1,8.69,63.72Zm25.188-1.863a3.388,3.388,0,1,0-3.388-3.388A3.4,3.4,0,0,0,33.877,61.857Zm6.775,5.81a3.406,3.406,0,0,0-2.067-3.134,11.517,11.517,0,0,0-6.623-.813A7.621,7.621,0,0,1,33.03,67.6v2.727h7.622ZM27.508,62.958a17.69,17.69,0,0,0-7.182-1.524,17.973,17.973,0,0,0-7.182,1.524A5.061,5.061,0,0,0,10.163,67.6v2.727H30.49V67.6A5.061,5.061,0,0,0,27.508,62.958ZM13.67,66.939c.152-.389.22-.661,1.541-1.169a14.27,14.27,0,0,1,10.231,0c1.3.508,1.372.779,1.541,1.169Zm6.657-13.551a1.694,1.694,0,1,1-1.694,1.694A1.7,1.7,0,0,1,20.326,53.388Zm0-3.388a5.082,5.082,0,1,0,5.082,5.082A5.075,5.075,0,0,0,20.326,50Z" transform="translate(289.455 96.182)" fill="#2392ca"/>
    </g>
  </g>
</svg>
