<svg xmlns="http://www.w3.org/2000/svg" width="203" height="36.849" viewBox="0 0 203 36.849">
  <g id="Group_1761" data-name="Group 1761" transform="translate(-64.24 -897.516)">
    <g id="Group_687" data-name="Group 687" transform="translate(64.24 897.516)">
      <path id="Path_4898" data-name="Path 4898" d="M99.819,918.926,85.828,933.095a4.356,4.356,0,0,1-6.149,0L65.509,919.1a4.357,4.357,0,0,1,0-6.149L79.5,898.786a4.357,4.357,0,0,1,6.149,0l14.169,13.991a4.357,4.357,0,0,1,0,6.149Zm-1.782-.98a3.02,3.02,0,0,0,0-4.1L84.669,900.568a2.934,2.934,0,0,0-4.1.089L67.292,913.935a2.932,2.932,0,0,0,.089,4.1l13.278,13.278a3.019,3.019,0,0,0,4.1,0Z" transform="translate(-64.24 -897.516)" fill="#fff" fill-rule="evenodd"/>
      <path id="Path_4899" data-name="Path 4899" d="M101.317,924.449c-3.832,3.3-7.664,6.684-11.5,10.07a3.458,3.458,0,0,1-4.723-.357c-3.3-3.832-6.684-7.664-9.981-11.585a3.258,3.258,0,0,1,.267-4.634c3.832-3.386,7.664-6.684,11.585-10.07a3.348,3.348,0,0,1,4.634.357c3.386,3.832,6.684,7.664,10.069,11.5a3.372,3.372,0,0,1-.356,4.723Zm-1.337-.891a2.245,2.245,0,0,0,.267-3.119c-3.208-3.654-6.327-7.218-9.535-10.872a2.238,2.238,0,0,0-3.119-.267c-3.654,3.208-7.218,6.327-10.872,9.535a2.237,2.237,0,0,0-.178,3.119c3.119,3.654,6.327,7.218,9.446,10.872a2.236,2.236,0,0,0,3.119.178C92.762,929.885,96.326,926.766,99.98,923.558Z" transform="translate(-69.926 -902.95)" fill="#fff" fill-rule="evenodd"/>
      <path id="Path_4900" data-name="Path 4900" d="M103.073,929.885l-9.042,5.851a2.288,2.288,0,0,1-3.191-.621c-1.95-3.014-3.989-6.028-5.94-9.042a2.31,2.31,0,0,1,.709-3.191c3.014-1.95,5.94-3.9,8.953-5.939a2.415,2.415,0,0,1,3.28.709c1.95,3.014,3.9,6.028,5.851,8.954a2.393,2.393,0,0,1-.621,3.28Zm-.887-.8a1.553,1.553,0,0,0,.443-2.127l-5.585-8.51a1.554,1.554,0,0,0-2.128-.443l-8.51,5.585a1.553,1.553,0,0,0-.443,2.128l5.585,8.51a1.554,1.554,0,0,0,2.128.443Z" transform="translate(-75.738 -908.315)" fill="#fff" fill-rule="evenodd"/>
      <path id="Path_4901" data-name="Path 4901" d="M104.278,935.639l-6.428,1.737a1.6,1.6,0,0,1-1.847-1.1v0l-1.736-6.338a1.462,1.462,0,0,1,1.02-1.852l6.428-1.824a1.554,1.554,0,0,1,1.849,1.109L105.3,933.7a1.523,1.523,0,0,1-1.014,1.938l-.005,0Zm-.4-.785a.847.847,0,0,0,.547-1.1l0,0-1.651-6v0a.833.833,0,0,0-1.019-.62l-6.07,1.647a.919.919,0,0,0-.55,1.1v0l1.65,5.99a1.064,1.064,0,0,0,.428.557.635.635,0,0,0,.579.079l0,0Z" transform="translate(-81.214 -913.779)" fill="#fff" fill-rule="evenodd"/>
    </g>
    <path id="Path_4902" data-name="Path 4902" d="M172.947,922.929a1.989,1.989,0,0,0-.155-.809,1.617,1.617,0,0,0-.426-.585,1.8,1.8,0,0,0-.641-.351,2.642,2.642,0,0,0-.8-.117,3.52,3.52,0,0,0-.814.089,1.636,1.636,0,0,0-.65.309,1.507,1.507,0,0,0-.435.576,2.177,2.177,0,0,0-.159.889,1.663,1.663,0,0,0,.542,1.353,2.206,2.206,0,0,0,1.46.454,2.652,2.652,0,0,0,.9-.14,1.882,1.882,0,0,0,.65-.383,1.564,1.564,0,0,0,.393-.571,1.893,1.893,0,0,0,.131-.711Zm-2.059-4.689a4.836,4.836,0,0,1,.964.1,2.538,2.538,0,0,1,.88.351,1.944,1.944,0,0,1,.641.688,2.218,2.218,0,0,1,.248,1.109v2.433a2.123,2.123,0,0,1-1.006,1.933,2.722,2.722,0,0,1-.908.365,4.434,4.434,0,0,1-.875.1,3.334,3.334,0,0,1-1.193-.192,2.282,2.282,0,0,1-.823-.52,2.11,2.11,0,0,1-.482-.758,2.635,2.635,0,0,1-.159-.918,2.679,2.679,0,0,1,.229-1.179A2.058,2.058,0,0,1,169,921a2.238,2.238,0,0,1,.828-.393,3.875,3.875,0,0,1,.927-.112,2.978,2.978,0,0,1,1.3.257,2.635,2.635,0,0,1,.87.651v-.683a1.867,1.867,0,0,0-.524-1.395,2.036,2.036,0,0,0-1.488-.514,4.409,4.409,0,0,0-.973.084,1.483,1.483,0,0,0-.543.224.737.737,0,0,0-.257.323,2.213,2.213,0,0,0-.108.379H168.4a2.566,2.566,0,0,1,.1-.468,1.221,1.221,0,0,1,.332-.52,2.014,2.014,0,0,1,.74-.421,4.055,4.055,0,0,1,1.319-.173Zm8.892,4.6v-3.089a3.083,3.083,0,0,0-.023-.407.606.606,0,0,0-.112-.29.519.519,0,0,0-.272-.173,1.722,1.722,0,0,0-.491-.056,1.676,1.676,0,0,0-.416.052.982.982,0,0,0-.351.164.819.819,0,0,0-.239.285.884.884,0,0,0-.089.407v1.563h-.692v-1.563a.817.817,0,0,0-.281-.692,1.319,1.319,0,0,0-.814-.215h-.973v-.571h.833a4.531,4.531,0,0,1,.533.028,1.409,1.409,0,0,1,.426.117,1.017,1.017,0,0,1,.341.262,1.892,1.892,0,0,1,.281.463,2.141,2.141,0,0,1,.328-.463,1.228,1.228,0,0,1,.36-.262,1.4,1.4,0,0,1,.407-.117,3.637,3.637,0,0,1,.468-.028,1.73,1.73,0,0,1,.8.154,1.049,1.049,0,0,1,.435.412,1.556,1.556,0,0,1,.182.6,6.527,6.527,0,0,1,.037.716v2.7a2.314,2.314,0,0,1-.29,1.217,2.361,2.361,0,0,1-.716.758,2.791,2.791,0,0,1-.908.393,3.843,3.843,0,0,1-.865.113,3.128,3.128,0,0,1-1.193-.206,2.243,2.243,0,0,1-.824-.562,2.307,2.307,0,0,1-.482-.837,3.278,3.278,0,0,1-.159-1.034h.692a1.837,1.837,0,0,0,2,2.059,2.426,2.426,0,0,0,.9-.154,1.875,1.875,0,0,0,.646-.411,1.637,1.637,0,0,0,.383-.6,2.109,2.109,0,0,0,.127-.73Zm2.949.094a1.894,1.894,0,0,0,.131.711,1.568,1.568,0,0,0,.393.571,1.885,1.885,0,0,0,.65.383,2.652,2.652,0,0,0,.9.14,2.2,2.2,0,0,0,1.46-.454,1.663,1.663,0,0,0,.543-1.353,2.178,2.178,0,0,0-.159-.889,1.5,1.5,0,0,0-.435-.576,1.636,1.636,0,0,0-.655-.309,3.535,3.535,0,0,0-.809-.089,2.642,2.642,0,0,0-.8.117,1.8,1.8,0,0,0-.641.351,1.623,1.623,0,0,0-.426.585,1.99,1.99,0,0,0-.154.809Zm3.987-4.633v.618H184.2q-.449,0-.734.014a1.018,1.018,0,0,0-.445.1.453.453,0,0,0-.215.286,2.21,2.21,0,0,0-.056.571l.019,1.516a3.052,3.052,0,0,1,.917-.641,2.845,2.845,0,0,1,1.235-.267,3.891,3.891,0,0,1,.922.112,2.237,2.237,0,0,1,.833.393,2.058,2.058,0,0,1,.6.749,2.679,2.679,0,0,1,.229,1.179,2.635,2.635,0,0,1-.159.918,2.11,2.11,0,0,1-.482.758,2.277,2.277,0,0,1-.828.52,3.341,3.341,0,0,1-1.189.192,5.1,5.1,0,0,1-.875-.084,2.73,2.73,0,0,1-.908-.333,2.118,2.118,0,0,1-.716-.7,2.164,2.164,0,0,1-.29-1.188v-2.995a2.582,2.582,0,0,1,.159-1.02,1.03,1.03,0,0,1,.445-.51,1.589,1.589,0,0,1,.688-.173q.4-.019.88-.019Zm7,3.163q0,.243,0,.575t-.023.786q-.019.454-.056,1.048t-.1,1.352h-.693q.066-.777.1-1.371t.052-1.039q.014-.445.019-.772t0-.571a5.788,5.788,0,0,0-.117-1.268,2.229,2.229,0,0,0-.342-.819,1.238,1.238,0,0,0-.562-.44,2.1,2.1,0,0,0-.767-.131,2.189,2.189,0,0,0-.809.135,1.232,1.232,0,0,0-.566.463,2.345,2.345,0,0,0-.332.87,7.172,7.172,0,0,0-.107,1.357q0,.244,0,.571t.023.763q.019.435.056.992t.1,1.258h-.692q-.112-1.16-.15-1.923t-.037-1.268v-.571a5.1,5.1,0,0,1,.22-1.643,2.563,2.563,0,0,1,.571-.983,1.777,1.777,0,0,1,.8-.472,3.481,3.481,0,0,1,1.825,0,1.778,1.778,0,0,1,.8.472,2.515,2.515,0,0,1,.566.983,5.2,5.2,0,0,1,.215,1.643Zm4.7-3.192a6.835,6.835,0,0,1,1.011.07,3.157,3.157,0,0,1,.814.224,1.367,1.367,0,0,1,.538.4.958.958,0,0,1,.192.6,1.241,1.241,0,0,1-.842,1.235,2.119,2.119,0,0,1,.622.361,2.194,2.194,0,0,1,.426.482,1.97,1.97,0,0,1,.248.557,2.228,2.228,0,0,1,.08.585,2.275,2.275,0,0,1-.787,1.886,3.625,3.625,0,0,1-2.311.632,3.223,3.223,0,0,1-1.479-.328,3.53,3.53,0,0,1-1.09-.842,3.619,3.619,0,0,1-.674-1.156,3.747,3.747,0,0,1-.229-1.268q0-.347.014-.744a7.166,7.166,0,0,1,.084-.847,6.46,6.46,0,0,1,.225-.94,6.176,6.176,0,0,1,.435-1.025l.608.328a8.916,8.916,0,0,0-.416,1.076,7.1,7.1,0,0,0-.211.866,5.148,5.148,0,0,0-.075.7c-.006.206-.01.393-.01.562a3.37,3.37,0,0,0,.206,1.188,2.985,2.985,0,0,0,.575.964,2.72,2.72,0,0,0,.88.651,2.632,2.632,0,0,0,1.128.239,4.31,4.31,0,0,0,1-.108,2.057,2.057,0,0,0,.772-.346,1.628,1.628,0,0,0,.5-.613,2.085,2.085,0,0,0,.178-.9,1.521,1.521,0,0,0-.14-.636,1.745,1.745,0,0,0-.384-.543,1.864,1.864,0,0,0-.575-.374,1.8,1.8,0,0,0-.706-.141h-1.161v-.534h1.161a4.751,4.751,0,0,0,.482-.023,1.066,1.066,0,0,0,.4-.117.7.7,0,0,0,.276-.276,1.05,1.05,0,0,0,.1-.51.606.606,0,0,0-.089-.323.666.666,0,0,0-.3-.243,2.265,2.265,0,0,0-.575-.155,6,6,0,0,0-.894-.056v-.562Zm9.3,3.192q0,.243,0,.575t-.024.786q-.018.454-.056,1.048t-.1,1.352h-.692q.066-.777.1-1.371t.052-1.039q.014-.445.019-.772t0-.571a5.793,5.793,0,0,0-.117-1.268,2.23,2.23,0,0,0-.342-.819,1.238,1.238,0,0,0-.562-.44,2.1,2.1,0,0,0-.767-.131,2.187,2.187,0,0,0-.809.135,1.231,1.231,0,0,0-.566.463,2.338,2.338,0,0,0-.332.87,7.177,7.177,0,0,0-.107,1.357q0,.244,0,.571t.023.763q.018.435.056.992t.1,1.258h-.692q-.112-1.16-.15-1.923t-.037-1.268v-.571a5.1,5.1,0,0,1,.22-1.643,2.563,2.563,0,0,1,.571-.983,1.776,1.776,0,0,1,.8-.472,3.5,3.5,0,0,1,.917-.122,3.459,3.459,0,0,1,.908.122,1.777,1.777,0,0,1,.8.472,2.515,2.515,0,0,1,.566.983,5.19,5.19,0,0,1,.215,1.643Zm3.819-3.22a.449.449,0,0,0,.2.407,1.594,1.594,0,0,0,.491.2q.3.07.637.127a2.268,2.268,0,0,1,.637.2,1.2,1.2,0,0,1,.688,1.193,1.234,1.234,0,0,1-.037.286,1.211,1.211,0,0,1-.337.58,1.16,1.16,0,0,1-.309.211,1.529,1.529,0,0,1,.87,1.394,2.608,2.608,0,0,1-.229,1.147,2.186,2.186,0,0,1-.6.767,2.385,2.385,0,0,1-.852.43,3.625,3.625,0,0,1-.988.136,3.449,3.449,0,0,1-1.207-.192,2.523,2.523,0,0,1-.866-.524,2.1,2.1,0,0,1-.524-.786,2.724,2.724,0,0,1-.173-.978h.692a1.964,1.964,0,0,0,.154.8,1.712,1.712,0,0,0,.435.6,1.884,1.884,0,0,0,.665.374,2.686,2.686,0,0,0,.842.126,2.182,2.182,0,0,0,.88-.164,1.8,1.8,0,0,0,.618-.43,1.72,1.72,0,0,0,.36-.609,2.136,2.136,0,0,0,.117-.7,1.306,1.306,0,0,0-.229-.7,1.211,1.211,0,0,0-.286-.29.655.655,0,0,0-.393-.121l-1.469-.01v-.59h1.469a.77.77,0,0,0,.365-.075.57.57,0,0,0,.22-.2.787.787,0,0,0,.107-.286,1.837,1.837,0,0,0,.028-.327.51.51,0,0,0-.206-.44,1.642,1.642,0,0,0-.52-.238,6.327,6.327,0,0,0-.674-.15,3.278,3.278,0,0,1-.674-.187,1.4,1.4,0,0,1-.52-.351.9.9,0,0,1-.206-.627Zm6.57,0a1.422,1.422,0,0,0,.2.777,2.586,2.586,0,0,0,.487.562q.29.252.632.5a3.622,3.622,0,0,1,.632.59,3,3,0,0,1,.487.833,3.34,3.34,0,0,1,.2,1.231,3.925,3.925,0,0,1-.126,1.016,2.136,2.136,0,0,1-.412.819,1.951,1.951,0,0,1-.763.547,3.52,3.52,0,0,1-2.386-.014,2.171,2.171,0,0,1-.829-.6,2.475,2.475,0,0,1-.477-.9,3.973,3.973,0,0,1-.155-1.137v-.683h.693v.674a3.174,3.174,0,0,0,.126.922,2.139,2.139,0,0,0,.37.721,1.651,1.651,0,0,0,.613.473,2.073,2.073,0,0,0,.866.168,2.207,2.207,0,0,0,.838-.14,1.349,1.349,0,0,0,.552-.4,1.634,1.634,0,0,0,.3-.641,3.626,3.626,0,0,0,.094-.866,2.43,2.43,0,0,0-.2-1.048,2.8,2.8,0,0,0-.5-.734,4.519,4.519,0,0,0-.655-.567,5.9,5.9,0,0,1-.655-.538,2.671,2.671,0,0,1-.5-.651,1.859,1.859,0,0,1-.2-.908Zm3.96,1.928a.617.617,0,0,1-.01-.122v-.121a1.543,1.543,0,0,1,.51-1.235,2.194,2.194,0,0,1,1.474-.44,2.358,2.358,0,0,1,.7.089,1.382,1.382,0,0,1,.468.243,1.253,1.253,0,0,1,.3.356,3.151,3.151,0,0,1,.2.426,1.7,1.7,0,0,1,.15-.426,1.226,1.226,0,0,1,.276-.356,1.249,1.249,0,0,1,.435-.243,1.957,1.957,0,0,1,.627-.089,1.856,1.856,0,0,1,.589.084,1.411,1.411,0,0,1,.431.224,1.4,1.4,0,0,1,.295.314,1.715,1.715,0,0,1,.182.341,1.884,1.884,0,0,1,.178-.341,1.2,1.2,0,0,1,.3-.314,1.544,1.544,0,0,1,.477-.224,2.524,2.524,0,0,1,.707-.084,2.223,2.223,0,0,1,1.5.44,1.474,1.474,0,0,1,.505,1.169l-.094,2.93h-.692l.075-2.7a1.3,1.3,0,0,0-.318-.95,1.539,1.539,0,0,0-1.114-.323,1.239,1.239,0,0,0-.566.117.979.979,0,0,0-.37.323,1.31,1.31,0,0,0-.2.491,3.26,3.26,0,0,0-.056.632l-.01,1.469h-.692l.01-1.451a4.071,4.071,0,0,0-.047-.646,1.3,1.3,0,0,0-.178-.5.877.877,0,0,0-.355-.318,1.25,1.25,0,0,0-.562-.112,1.2,1.2,0,0,0-.548.112.888.888,0,0,0-.351.318,1.358,1.358,0,0,0-.182.491,3.578,3.578,0,0,0-.052.632v1.469h-.692v-1.469a2.017,2.017,0,0,0-.286-1.132,1,1,0,0,0-.9-.431,1.745,1.745,0,0,0-1.114.286,1.033,1.033,0,0,0-.346.846v.113a.451.451,0,0,0,.009.1l.253,3.482a.785.785,0,0,0,.871.786l7.3.187v.59l-7.3-.178a1.508,1.508,0,0,1-1.132-.379,1.6,1.6,0,0,1-.421-1.006l-.234-3.482Zm16.276,2.667v-3.089a3.075,3.075,0,0,0-.023-.407.605.605,0,0,0-.112-.29.519.519,0,0,0-.272-.173,1.722,1.722,0,0,0-.491-.056,1.675,1.675,0,0,0-.416.052.982.982,0,0,0-.351.164.82.82,0,0,0-.239.285.884.884,0,0,0-.089.407v1.563h-.692v-1.563a.817.817,0,0,0-.281-.692,1.32,1.32,0,0,0-.814-.215h-.973v-.571h.833a4.531,4.531,0,0,1,.533.028,1.409,1.409,0,0,1,.426.117,1.017,1.017,0,0,1,.341.262,1.919,1.919,0,0,1,.281.463,2.142,2.142,0,0,1,.328-.463,1.228,1.228,0,0,1,.36-.262,1.4,1.4,0,0,1,.407-.117,3.637,3.637,0,0,1,.468-.028,1.73,1.73,0,0,1,.8.154,1.049,1.049,0,0,1,.435.412,1.557,1.557,0,0,1,.182.6,6.631,6.631,0,0,1,.037.716v2.7a2.314,2.314,0,0,1-.29,1.217,2.361,2.361,0,0,1-.716.758,2.791,2.791,0,0,1-.908.393,3.844,3.844,0,0,1-.865.113,3.127,3.127,0,0,1-1.193-.206,2.243,2.243,0,0,1-.824-.562,2.3,2.3,0,0,1-.482-.837,3.279,3.279,0,0,1-.159-1.034h.692a1.836,1.836,0,0,0,2,2.059,2.426,2.426,0,0,0,.9-.154,1.875,1.875,0,0,0,.646-.411,1.637,1.637,0,0,0,.384-.6,2.109,2.109,0,0,0,.126-.73Zm6.234-1.469a1.233,1.233,0,0,1,.295-.37,2.328,2.328,0,0,1,.5-.342,3.426,3.426,0,0,1,.636-.248,2.6,2.6,0,0,1,.711-.1,2.98,2.98,0,0,1,.9.122,1.643,1.643,0,0,1,.622.346,1.383,1.383,0,0,1,.361.533,1.915,1.915,0,0,1,.117.683l-.094,3.229h-.693l.094-2.995a1.361,1.361,0,0,0-.341-1.011,1.537,1.537,0,0,0-1.109-.337,1.659,1.659,0,0,0-1.24.426,1.555,1.555,0,0,0-.416,1.137v1.189h-.693v-1.189a1.555,1.555,0,0,0-.416-1.137,1.659,1.659,0,0,0-1.24-.426,1.537,1.537,0,0,0-1.109.337,1.361,1.361,0,0,0-.341,1.011l.094,2.995h-.692l-.094-3.416a4.329,4.329,0,0,1,.262-1.5,2.876,2.876,0,0,1,.65-1.011,2.843,2.843,0,0,1,.95-.613,5.492,5.492,0,0,1,1.16-.314,9.475,9.475,0,0,1,1.282-.112q.664-.014,1.31-.014v.571q-.244,0-.52,0t-.585,0q-.562,0-1.17.061a4.432,4.432,0,0,0-1.147.267,2.668,2.668,0,0,0-.945.613,2.146,2.146,0,0,0-.557,1.09,1.463,1.463,0,0,1,.571-.393,2.018,2.018,0,0,1,.739-.131,2.6,2.6,0,0,1,.711.1,3.445,3.445,0,0,1,.637.248,2.336,2.336,0,0,1,.5.342,1.241,1.241,0,0,1,.3.37Zm10.37.094q0,.243,0,.575t-.023.786q-.019.454-.056,1.048t-.1,1.352h-.693q.066-.777.1-1.371t.052-1.039q.014-.445.019-.772t0-.571a5.787,5.787,0,0,0-.117-1.268,2.236,2.236,0,0,0-.341-.819,1.243,1.243,0,0,0-.562-.44,2.106,2.106,0,0,0-.767-.131,2.191,2.191,0,0,0-.81.135,1.23,1.23,0,0,0-.566.463,2.338,2.338,0,0,0-.332.87,7.135,7.135,0,0,0-.108,1.357q0,.244,0,.571t.023.763q.019.435.056.992t.1,1.258h-.692q-.112-1.16-.15-1.923t-.037-1.268v-.571a5.1,5.1,0,0,1,.22-1.643,2.557,2.557,0,0,1,.571-.983,1.777,1.777,0,0,1,.8-.472,3.482,3.482,0,0,1,1.825,0,1.778,1.778,0,0,1,.8.472,2.521,2.521,0,0,1,.566.983,5.2,5.2,0,0,1,.215,1.643Zm4.951,1.376a2.118,2.118,0,0,0,.126.73,1.642,1.642,0,0,0,.384.6,1.885,1.885,0,0,0,.641.411,2.42,2.42,0,0,0,.908.154,2.559,2.559,0,0,0,.828-.126,1.826,1.826,0,0,0,.632-.361,1.556,1.556,0,0,0,.4-.571,1.93,1.93,0,0,0,.14-.749,2.333,2.333,0,0,0-.145-.884,1.861,1.861,0,0,0-.342-.562,1.272,1.272,0,0,0-.407-.3,1.1,1.1,0,0,0-.332-.1.8.8,0,0,1-.557-.253.771.771,0,0,1-.2-.533v-.552h.655v.412a.41.41,0,0,0,.075.262.528.528,0,0,0,.309.141,3.36,3.36,0,0,1,.4.159,1.964,1.964,0,0,1,.547.388,2.354,2.354,0,0,1,.482.712,2.667,2.667,0,0,1,.206,1.118,2.526,2.526,0,0,1-.159.88,2.156,2.156,0,0,1-.482.763,2.386,2.386,0,0,1-.828.538,3.138,3.138,0,0,1-1.189.206,4.434,4.434,0,0,1-.875-.1,2.722,2.722,0,0,1-.908-.365,2.123,2.123,0,0,1-1.006-1.933V918.24h.693v4.6Zm10.539-2.321a1.667,1.667,0,0,0-.459-1.3,1.971,1.971,0,0,0-1.366-.417,2.329,2.329,0,0,0-.9.14,1.212,1.212,0,0,0-.487.351,1.108,1.108,0,0,0-.215.449c-.034.159-.064.3-.089.435h-.637q.009-.131.037-.328a2.04,2.04,0,0,1,.332-.842,1.475,1.475,0,0,1,.4-.388,2.148,2.148,0,0,1,.627-.281,3.316,3.316,0,0,1,.908-.108,4.266,4.266,0,0,1,.9.1,2.315,2.315,0,0,1,.819.346,1.849,1.849,0,0,1,.595.683,2.368,2.368,0,0,1,.229,1.109v2.452a2.362,2.362,0,0,1-.271,1.2,2.176,2.176,0,0,1-.674.73,2.5,2.5,0,0,1-.852.365,3.82,3.82,0,0,1-.8.1,2.624,2.624,0,0,1-1.123-.22,2.138,2.138,0,0,1-.767-.59,2.408,2.408,0,0,1-.44-.847,3.535,3.535,0,0,1-.14-1h.692a2.237,2.237,0,0,0,.482,1.535,1.692,1.692,0,0,0,1.334.542,2.071,2.071,0,0,0,.833-.154,1.64,1.64,0,0,0,.585-.411,1.674,1.674,0,0,0,.342-.6,2.364,2.364,0,0,0,.112-.73Z" transform="translate(-58.897 -11.696)" fill="#fff" fill-rule="evenodd"/>
    <path id="Path_4903" data-name="Path 4903" d="M276.494,921.463a1.24,1.24,0,0,1,.295-.37,2.337,2.337,0,0,1,.5-.342,3.416,3.416,0,0,1,.637-.248,2.589,2.589,0,0,1,.711-.1,2.967,2.967,0,0,1,.9.122,1.64,1.64,0,0,1,.622.346,1.385,1.385,0,0,1,.36.533,1.915,1.915,0,0,1,.117.683l-.093,3.229h-.693l.094-2.995a1.363,1.363,0,0,0-.341-1.011,1.539,1.539,0,0,0-1.109-.337,1.66,1.66,0,0,0-1.24.426,1.557,1.557,0,0,0-.416,1.137v1.189h-.692V922.54a1.555,1.555,0,0,0-.416-1.137,1.66,1.66,0,0,0-1.24-.426,1.537,1.537,0,0,0-1.109.337,1.361,1.361,0,0,0-.342,1.011l.094,2.995h-.692l-.094-3.416a4.329,4.329,0,0,1,.262-1.5,2.758,2.758,0,0,1,1.6-1.624,5.477,5.477,0,0,1,1.16-.314,9.449,9.449,0,0,1,1.282-.112q.665-.014,1.31-.014v.571q-.243,0-.52,0c-.184,0-.379,0-.585,0q-.562,0-1.17.061a4.429,4.429,0,0,0-1.147.267,2.673,2.673,0,0,0-.945.613,2.155,2.155,0,0,0-.557,1.09,1.464,1.464,0,0,1,.571-.393,2.019,2.019,0,0,1,.739-.131,2.592,2.592,0,0,1,.712.1,3.422,3.422,0,0,1,.636.248,2.324,2.324,0,0,1,.5.342,1.233,1.233,0,0,1,.295.37Zm10.127,1.666a1.2,1.2,0,0,0-.117-.519,1.492,1.492,0,0,0-.309-.435,1.466,1.466,0,0,0-.435-.3,1.214,1.214,0,0,0-.5-.107h-1.189v-.693h1.189a1.165,1.165,0,0,0,.449-.089,1.329,1.329,0,0,0,.374-.229,1.114,1.114,0,0,0,.253-.318.759.759,0,0,0,.094-.356.951.951,0,0,0-.491-.912,3.056,3.056,0,0,0-1.427-.266,2.92,2.92,0,0,0-.964.126,1.354,1.354,0,0,0-.524.314.878.878,0,0,0-.229.411,3.3,3.3,0,0,0-.07.421h-.637a2.631,2.631,0,0,1,.023-.319,1.553,1.553,0,0,1,.108-.393,1.88,1.88,0,0,1,.238-.412,1.441,1.441,0,0,1,.421-.365,2.552,2.552,0,0,1,.66-.262,3.786,3.786,0,0,1,.945-.1,8.389,8.389,0,0,1,.917.052,2.639,2.639,0,0,1,.852.234,1.474,1.474,0,0,1,.87,1.465,1.251,1.251,0,0,1-.1.524,1.591,1.591,0,0,1-.253.393,1.679,1.679,0,0,1-.318.281,2.775,2.775,0,0,1-.3.178,2.42,2.42,0,0,1,.351.225,2.206,2.206,0,0,1,.379.365,2.163,2.163,0,0,1,.3.5,1.552,1.552,0,0,1,.126.632,2.058,2.058,0,0,1-.29,1.151,2.1,2.1,0,0,1-.721.683,2.837,2.837,0,0,1-.913.328,5.1,5.1,0,0,1-.866.084,3.128,3.128,0,0,1-1.193-.206,2.339,2.339,0,0,1-.824-.548,2.222,2.222,0,0,1-.482-.791,2.78,2.78,0,0,1-.159-.936h.692a1.823,1.823,0,0,0,.533,1.4,2.074,2.074,0,0,0,1.469.5,2.214,2.214,0,0,0,1.549-.473,1.611,1.611,0,0,0,.51-1.24Zm6.908-1.573q0,.243,0,.575t-.023.786q-.019.454-.056,1.048t-.1,1.352h-.693q.066-.777.1-1.371t.051-1.039q.014-.445.019-.772t0-.571a5.789,5.789,0,0,0-.117-1.268,2.238,2.238,0,0,0-.341-.819,1.242,1.242,0,0,0-.562-.44,2.1,2.1,0,0,0-.767-.131,2.192,2.192,0,0,0-.81.135,1.23,1.23,0,0,0-.566.463,2.337,2.337,0,0,0-.332.87,7.136,7.136,0,0,0-.108,1.357q0,.244,0,.571c0,.219.011.473.023.763s.031.621.056.992.059.79.1,1.258h-.692q-.112-1.16-.15-1.923t-.037-1.268v-.571a5.09,5.09,0,0,1,.22-1.643,2.556,2.556,0,0,1,.571-.983,1.778,1.778,0,0,1,.8-.473,3.479,3.479,0,0,1,1.825,0,1.777,1.777,0,0,1,.8.473,2.513,2.513,0,0,1,.566.983,5.2,5.2,0,0,1,.215,1.643Zm1.91,1.376a2.109,2.109,0,0,0,.127.73,1.638,1.638,0,0,0,.383.6,1.89,1.89,0,0,0,.641.412,2.42,2.42,0,0,0,.908.154,2.553,2.553,0,0,0,.828-.126,1.82,1.82,0,0,0,.632-.36,1.554,1.554,0,0,0,.4-.571,1.931,1.931,0,0,0,.14-.749,2.329,2.329,0,0,0-.145-.884,1.853,1.853,0,0,0-.341-.562,1.269,1.269,0,0,0-.407-.3,1.1,1.1,0,0,0-.332-.1.8.8,0,0,1-.557-.252.772.772,0,0,1-.2-.534v-.552h.655v.411a.411.411,0,0,0,.075.262.526.526,0,0,0,.309.14,3.381,3.381,0,0,1,.4.159,1.955,1.955,0,0,1,.548.388,2.36,2.36,0,0,1,.482.711,2.662,2.662,0,0,1,.206,1.119,2.517,2.517,0,0,1-.159.88,2.164,2.164,0,0,1-.482.763,2.39,2.39,0,0,1-.829.538,3.138,3.138,0,0,1-1.189.206,4.419,4.419,0,0,1-.875-.1,2.711,2.711,0,0,1-.908-.365,2.122,2.122,0,0,1-1.006-1.933v-4.679h.692v4.6Zm10.539-2.321a1.668,1.668,0,0,0-.458-1.3,1.972,1.972,0,0,0-1.366-.416,2.332,2.332,0,0,0-.9.14,1.216,1.216,0,0,0-.487.351,1.116,1.116,0,0,0-.215.449c-.034.159-.064.3-.089.435h-.636q.009-.131.037-.328a2.012,2.012,0,0,1,.107-.412,2.044,2.044,0,0,1,.225-.431,1.47,1.47,0,0,1,.4-.388,2.148,2.148,0,0,1,.627-.281,3.31,3.31,0,0,1,.908-.108,4.269,4.269,0,0,1,.9.1,2.313,2.313,0,0,1,.819.346,1.852,1.852,0,0,1,.595.683,2.373,2.373,0,0,1,.229,1.109v2.452a2.359,2.359,0,0,1-.272,1.2,2.169,2.169,0,0,1-.674.73,2.489,2.489,0,0,1-.851.365,3.817,3.817,0,0,1-.805.1,2.624,2.624,0,0,1-1.123-.22,2.142,2.142,0,0,1-.768-.59,2.414,2.414,0,0,1-.44-.847,3.535,3.535,0,0,1-.14-1h.693a2.234,2.234,0,0,0,.482,1.535,1.69,1.69,0,0,0,1.334.543,2.074,2.074,0,0,0,.833-.154,1.65,1.65,0,0,0,.585-.412,1.675,1.675,0,0,0,.341-.6,2.351,2.351,0,0,0,.112-.73v-2.321Zm4.605,4.8a3.17,3.17,0,0,1-1.2-.206,2.425,2.425,0,0,1-.838-.547,2.209,2.209,0,0,1-.5-.791,2.924,2.924,0,0,1,.056-2.078,2.146,2.146,0,0,1,.6-.786,2.494,2.494,0,0,1,.9-.454,4.094,4.094,0,0,1,1.114-.145.614.614,0,0,0,.01-.122v-.112a.917.917,0,0,0-.379-.8,1.871,1.871,0,0,0-.351-.206,3.314,3.314,0,0,1-.351-.183.889.889,0,0,1-.271-.248.657.657,0,0,1-.108-.393h.786a.389.389,0,0,0,.1.281,1.021,1.021,0,0,0,.239.182q.14.079.313.169a1.191,1.191,0,0,1,.314.234,1.222,1.222,0,0,1,.239.374,1.555,1.555,0,0,1,.1.6c0,.05,0,.1,0,.15s-.008.1-.014.159a2.943,2.943,0,0,1,.646.225,2.18,2.18,0,0,1,1.09,1.165,2.72,2.72,0,0,1,.182,1.053,2.782,2.782,0,0,1-.159.936,2.157,2.157,0,0,1-.491.791,2.417,2.417,0,0,1-.838.547,3.139,3.139,0,0,1-1.189.206Zm0-.581a2.038,2.038,0,0,0,1.46-.5,1.84,1.84,0,0,0,.524-1.4,2.519,2.519,0,0,0-.145-.908,1.506,1.506,0,0,0-.407-.6,1.652,1.652,0,0,0-.627-.337,3.069,3.069,0,0,0-1.61,0,1.689,1.689,0,0,0-.632.337,1.525,1.525,0,0,0-.417.6,2.452,2.452,0,0,0-.15.908,1.822,1.822,0,0,0,.533,1.4,2.074,2.074,0,0,0,1.469.5Zm8.892-3.276q0,.243,0,.575t-.023.786q-.019.454-.056,1.048t-.1,1.352h-.693q.066-.777.1-1.371t.052-1.039q.014-.445.019-.772t0-.571a5.787,5.787,0,0,0-.117-1.268,2.236,2.236,0,0,0-.341-.819,1.241,1.241,0,0,0-.562-.44,2.1,2.1,0,0,0-.767-.131,2.192,2.192,0,0,0-.81.135,1.233,1.233,0,0,0-.566.463,2.344,2.344,0,0,0-.332.87,7.136,7.136,0,0,0-.108,1.357q0,.244,0,.571t.023.763q.019.435.056.992t.1,1.258h-.692q-.112-1.16-.15-1.923t-.037-1.268v-.571a5.09,5.09,0,0,1,.22-1.643,2.556,2.556,0,0,1,.571-.983,1.778,1.778,0,0,1,.8-.473,3.5,3.5,0,0,1,.917-.122,3.466,3.466,0,0,1,.908.122,1.776,1.776,0,0,1,.8.473,2.514,2.514,0,0,1,.566.983,5.205,5.205,0,0,1,.215,1.643Zm1.91,1.376a2.109,2.109,0,0,0,.127.73,1.638,1.638,0,0,0,.383.6,1.889,1.889,0,0,0,.641.412,2.42,2.42,0,0,0,.908.154,2.553,2.553,0,0,0,.828-.126,1.821,1.821,0,0,0,.632-.36,1.558,1.558,0,0,0,.4-.571,1.93,1.93,0,0,0,.14-.749,2.329,2.329,0,0,0-.145-.884,1.852,1.852,0,0,0-.341-.562,1.275,1.275,0,0,0-.407-.3,1.1,1.1,0,0,0-.332-.1.8.8,0,0,1-.556-.252.773.773,0,0,1-.2-.534v-.552h.655v.411a.408.408,0,0,0,.075.262.525.525,0,0,0,.309.14,3.358,3.358,0,0,1,.4.159,1.955,1.955,0,0,1,.548.388,2.361,2.361,0,0,1,.482.711,2.661,2.661,0,0,1,.206,1.119,2.517,2.517,0,0,1-.159.88,2.163,2.163,0,0,1-.482.763,2.39,2.39,0,0,1-.828.538,3.139,3.139,0,0,1-1.189.206,4.419,4.419,0,0,1-.875-.1,2.71,2.71,0,0,1-.908-.365,2.12,2.12,0,0,1-1.006-1.933v-4.679h.692v4.6ZM168.174,934.622a2.854,2.854,0,0,1,.169-.974,2.254,2.254,0,0,1,.51-.819,2.488,2.488,0,0,1,.861-.562,3.24,3.24,0,0,1,1.222-.21,4.018,4.018,0,0,1,.73.075,4.142,4.142,0,0,0,.113-.851.476.476,0,0,0-.276-.44,1.523,1.523,0,0,0-.725-.15,1.494,1.494,0,0,0-.744.155.509.509,0,0,0-.267.472h-.721a1.011,1.011,0,0,1,.14-.538,1.137,1.137,0,0,1,.374-.374,1.773,1.773,0,0,1,.533-.215,2.694,2.694,0,0,1,.618-.07,2.2,2.2,0,0,1,1.254.318.96.96,0,0,1,.468.824,4.482,4.482,0,0,1-.14,1.067,2.237,2.237,0,0,1,1.057.95,2.718,2.718,0,0,1,.347,1.343,2.855,2.855,0,0,1-.169.973,2.346,2.346,0,0,1-.51.828,2.415,2.415,0,0,1-.861.571,3.648,3.648,0,0,1-2.443,0,2.415,2.415,0,0,1-.861-.571,2.346,2.346,0,0,1-.51-.828,2.854,2.854,0,0,1-.169-.973Zm.693,0a2.225,2.225,0,0,0,.14.8,1.821,1.821,0,0,0,.4.632,1.769,1.769,0,0,0,.646.412,2.726,2.726,0,0,0,1.755,0,1.758,1.758,0,0,0,.65-.412,1.815,1.815,0,0,0,.4-.632,2.377,2.377,0,0,0,0-1.61,1.768,1.768,0,0,0-.4-.627,1.788,1.788,0,0,0-.65-.407,2.721,2.721,0,0,0-1.755,0,1.8,1.8,0,0,0-.646.407,1.775,1.775,0,0,0-.4.627,2.226,2.226,0,0,0-.14.8Zm8.564-4.493a1.423,1.423,0,0,0,.2.777,2.586,2.586,0,0,0,.487.562q.29.253.632.5a3.633,3.633,0,0,1,.632.59,2.99,2.99,0,0,1,.487.833,3.336,3.336,0,0,1,.2,1.231,3.926,3.926,0,0,1-.127,1.016,2.135,2.135,0,0,1-.412.819,1.945,1.945,0,0,1-.763.548,3.524,3.524,0,0,1-2.386-.014,2.174,2.174,0,0,1-.829-.6,2.478,2.478,0,0,1-.477-.9,3.972,3.972,0,0,1-.155-1.137v-.683h.693v.674a3.174,3.174,0,0,0,.126.922,2.136,2.136,0,0,0,.37.721,1.645,1.645,0,0,0,.613.473,2.073,2.073,0,0,0,.866.169,2.208,2.208,0,0,0,.838-.14,1.35,1.35,0,0,0,.552-.4,1.631,1.631,0,0,0,.3-.641,3.621,3.621,0,0,0,.094-.865,2.43,2.43,0,0,0-.2-1.049,2.815,2.815,0,0,0-.5-.734,4.551,4.551,0,0,0-.655-.566,5.807,5.807,0,0,1-.655-.538,2.67,2.67,0,0,1-.5-.65,1.858,1.858,0,0,1-.2-.908Zm4.708,4.689a1.893,1.893,0,0,0,.131.711,1.563,1.563,0,0,0,.393.571,1.878,1.878,0,0,0,.65.384,2.655,2.655,0,0,0,.9.14,2.2,2.2,0,0,0,1.46-.454,1.662,1.662,0,0,0,.543-1.352,2.177,2.177,0,0,0-.159-.889,1.506,1.506,0,0,0-.435-.576,1.639,1.639,0,0,0-.655-.309,3.555,3.555,0,0,0-.809-.089,2.641,2.641,0,0,0-.8.117,1.8,1.8,0,0,0-.641.351,1.622,1.622,0,0,0-.426.585,2,2,0,0,0-.154.809Zm3.987-4.633v.618h-2.518q-.45,0-.735.014a1.03,1.03,0,0,0-.445.1.455.455,0,0,0-.215.286,2.22,2.22,0,0,0-.056.571l.019,1.516a3.057,3.057,0,0,1,.917-.641,2.843,2.843,0,0,1,1.235-.266,3.891,3.891,0,0,1,.922.112,2.228,2.228,0,0,1,.833.393,2.056,2.056,0,0,1,.6.749,2.673,2.673,0,0,1,.229,1.179,2.632,2.632,0,0,1-.159.917,2.111,2.111,0,0,1-.482.758,2.273,2.273,0,0,1-.828.52,3.347,3.347,0,0,1-1.189.192,5.117,5.117,0,0,1-.875-.084,2.724,2.724,0,0,1-.907-.332,2.118,2.118,0,0,1-.716-.7,2.166,2.166,0,0,1-.29-1.189v-2.995a2.579,2.579,0,0,1,.159-1.02,1.03,1.03,0,0,1,.445-.51,1.582,1.582,0,0,1,.688-.173q.4-.019.88-.019Zm6.758,4.736a1.2,1.2,0,0,0-.117-.52,1.5,1.5,0,0,0-.309-.435,1.479,1.479,0,0,0-.435-.3,1.22,1.22,0,0,0-.5-.107h-1.189v-.693h1.189a1.171,1.171,0,0,0,.449-.089,1.331,1.331,0,0,0,.374-.23,1.114,1.114,0,0,0,.253-.318.759.759,0,0,0,.094-.356.953.953,0,0,0-.491-.913,3.057,3.057,0,0,0-1.427-.266,2.92,2.92,0,0,0-.964.126,1.356,1.356,0,0,0-.524.314.882.882,0,0,0-.229.412,3.336,3.336,0,0,0-.07.421h-.637a2.623,2.623,0,0,1,.023-.318,1.542,1.542,0,0,1,.108-.393,1.859,1.859,0,0,1,.238-.412,1.443,1.443,0,0,1,.421-.365,2.557,2.557,0,0,1,.66-.262,3.781,3.781,0,0,1,.945-.1,8.3,8.3,0,0,1,.917.052,2.652,2.652,0,0,1,.852.234,1.475,1.475,0,0,1,.87,1.465,1.248,1.248,0,0,1-.1.524,1.581,1.581,0,0,1-.253.393,1.669,1.669,0,0,1-.318.281,2.872,2.872,0,0,1-.3.178,2.441,2.441,0,0,1,.351.224,2.206,2.206,0,0,1,.379.365,2.161,2.161,0,0,1,.3.5,1.546,1.546,0,0,1,.126.632,2.06,2.06,0,0,1-.29,1.151,2.1,2.1,0,0,1-.721.683,2.846,2.846,0,0,1-.913.328,5.073,5.073,0,0,1-.866.084,3.132,3.132,0,0,1-1.193-.206,2.344,2.344,0,0,1-.824-.547,2.223,2.223,0,0,1-.482-.791,2.783,2.783,0,0,1-.159-.936h.692a1.825,1.825,0,0,0,.533,1.4,2.075,2.075,0,0,0,1.469.5,2.213,2.213,0,0,0,1.549-.472,1.611,1.611,0,0,0,.51-1.24Zm6.908-1.573q0,.243,0,.576t-.023.786q-.019.454-.056,1.048t-.1,1.352h-.692q.065-.777.1-1.371t.052-1.039q.014-.445.019-.772t0-.571a5.789,5.789,0,0,0-.117-1.268,2.24,2.24,0,0,0-.341-.819,1.246,1.246,0,0,0-.562-.44,2.114,2.114,0,0,0-.767-.131,2.189,2.189,0,0,0-.81.135,1.231,1.231,0,0,0-.566.463,2.34,2.34,0,0,0-.332.87,7.134,7.134,0,0,0-.107,1.357q0,.244,0,.571t.023.763q.019.435.056.992t.1,1.259h-.693q-.112-1.161-.15-1.923t-.038-1.268v-.571a5.1,5.1,0,0,1,.22-1.642,2.552,2.552,0,0,1,.571-.983,1.777,1.777,0,0,1,.8-.473,3.482,3.482,0,0,1,1.825,0,1.776,1.776,0,0,1,.8.473,2.515,2.515,0,0,1,.566.983,5.2,5.2,0,0,1,.215,1.642Zm3.912,3.856a2.783,2.783,0,0,1-1.2-.239,2.187,2.187,0,0,1-.838-.688,3.106,3.106,0,0,1-.5-1.1,6.055,6.055,0,0,1-.164-1.474,6.851,6.851,0,0,1,.112-1.329,3.909,3.909,0,0,1,.309-.959,2.194,2.194,0,0,1,.463-.646,2.3,2.3,0,0,1,.566-.393,2.213,2.213,0,0,1,.617-.2,3.927,3.927,0,0,1,.627-.052,3.643,3.643,0,0,1,.543.042,2.5,2.5,0,0,1,.552.149,2.421,2.421,0,0,1,.524.29,1.921,1.921,0,0,1,.449.463,2.309,2.309,0,0,1,.767-.683,2.089,2.089,0,0,1,1.039-.262,2.055,2.055,0,0,1,.922.2,2.008,2.008,0,0,1,.688.552,2.545,2.545,0,0,1,.431.814,3.228,3.228,0,0,1,.15,1l-.374,4.38H208.7l.374-4.043v-.206a2.993,2.993,0,0,0-.122-.889,2.026,2.026,0,0,0-.341-.67,1.5,1.5,0,0,0-.52-.421,1.479,1.479,0,0,0-.655-.145,1.148,1.148,0,0,0-.472.094,1.433,1.433,0,0,0-.374.239,1.765,1.765,0,0,0-.29.332,3.97,3.97,0,0,0-.22.365,5.643,5.643,0,0,1,.3,1.975,6.219,6.219,0,0,1-.159,1.474,3.041,3.041,0,0,1-.491,1.1,2.193,2.193,0,0,1-.838.688,2.762,2.762,0,0,1-1.189.239Zm0-.571a1.706,1.706,0,0,0,1.456-.721,3.74,3.74,0,0,0,.529-2.209,5.752,5.752,0,0,0-.145-1.394,2.715,2.715,0,0,0-.407-.931,1.526,1.526,0,0,0-.627-.52,1.992,1.992,0,0,0-.805-.159,2.153,2.153,0,0,0-.8.145,1.477,1.477,0,0,0-.632.5,2.606,2.606,0,0,0-.416.926,5.822,5.822,0,0,0-.15,1.437,5.46,5.46,0,0,0,.14,1.329,2.6,2.6,0,0,0,.4.908,1.614,1.614,0,0,0,.632.524A1.975,1.975,0,0,0,203.7,936.634Z" transform="translate(-58.897 -11.794)" fill="#fff" fill-rule="evenodd"/>
    <path id="Path_4904" data-name="Path 4904" d="M269.081,945.43a1.424,1.424,0,0,0,.2.777,2.594,2.594,0,0,0,.487.562q.291.253.632.5a3.636,3.636,0,0,1,.631.59,2.988,2.988,0,0,1,.487.833,3.337,3.337,0,0,1,.2,1.231,3.911,3.911,0,0,1-.127,1.015,2.135,2.135,0,0,1-.412.819,1.945,1.945,0,0,1-.763.548,3.524,3.524,0,0,1-2.387-.014,2.174,2.174,0,0,1-.828-.6,2.486,2.486,0,0,1-.477-.9,3.986,3.986,0,0,1-.154-1.137v-.683h.692v.674a3.16,3.16,0,0,0,.127.922,2.131,2.131,0,0,0,.37.721,1.642,1.642,0,0,0,.613.473,2.066,2.066,0,0,0,.865.169,2.207,2.207,0,0,0,.838-.14,1.353,1.353,0,0,0,.552-.4,1.632,1.632,0,0,0,.3-.641,3.625,3.625,0,0,0,.094-.865,2.424,2.424,0,0,0-.2-1.049,2.807,2.807,0,0,0-.5-.734,4.578,4.578,0,0,0-.655-.566,5.837,5.837,0,0,1-.655-.538,2.669,2.669,0,0,1-.5-.65,1.858,1.858,0,0,1-.2-.908Zm7.993,3.126a1.248,1.248,0,0,1,.3-.37,2.317,2.317,0,0,1,.5-.341,3.414,3.414,0,0,1,.637-.248,2.591,2.591,0,0,1,.711-.1,2.971,2.971,0,0,1,.9.121,1.646,1.646,0,0,1,.622.346,1.383,1.383,0,0,1,.36.534,1.911,1.911,0,0,1,.117.683l-.093,3.229h-.693l.094-3a1.361,1.361,0,0,0-.341-1.01,1.536,1.536,0,0,0-1.109-.337,1.66,1.66,0,0,0-1.24.426,1.556,1.556,0,0,0-.417,1.137v1.189h-.692v-1.189a1.556,1.556,0,0,0-.416-1.137,1.662,1.662,0,0,0-1.24-.426,1.534,1.534,0,0,0-1.109.337,1.359,1.359,0,0,0-.342,1.01l.094,3h-.692L272.928,949a4.33,4.33,0,0,1,.262-1.5,2.758,2.758,0,0,1,1.6-1.624,5.446,5.446,0,0,1,1.161-.313,9.4,9.4,0,0,1,1.282-.112q.665-.014,1.31-.014V946q-.243,0-.519,0t-.585,0a11.7,11.7,0,0,0-1.17.061,4.421,4.421,0,0,0-1.147.266,2.666,2.666,0,0,0-.945.613,2.15,2.15,0,0,0-.557,1.09,1.468,1.468,0,0,1,.571-.393,2.018,2.018,0,0,1,.739-.131,2.592,2.592,0,0,1,.712.1,3.431,3.431,0,0,1,.637.248,2.318,2.318,0,0,1,.5.341,1.239,1.239,0,0,1,.295.37Zm9.753-.851a1.67,1.67,0,0,0-.458-1.3,1.975,1.975,0,0,0-1.367-.416,2.328,2.328,0,0,0-.9.14,1.212,1.212,0,0,0-.487.351,1.11,1.11,0,0,0-.215.449q-.051.239-.089.435h-.637q.01-.131.038-.328a2.019,2.019,0,0,1,.108-.412,2.044,2.044,0,0,1,.224-.431,1.487,1.487,0,0,1,.4-.388,2.176,2.176,0,0,1,.627-.281,3.332,3.332,0,0,1,.908-.108,4.239,4.239,0,0,1,.9.1,2.31,2.31,0,0,1,.819.346,1.849,1.849,0,0,1,.594.683,2.369,2.369,0,0,1,.229,1.109v2.452a2.358,2.358,0,0,1-.271,1.2,2.174,2.174,0,0,1-.674.73,2.5,2.5,0,0,1-.852.365,3.813,3.813,0,0,1-.8.1,2.617,2.617,0,0,1-1.123-.22,2.14,2.14,0,0,1-.767-.59,2.407,2.407,0,0,1-.44-.847,3.534,3.534,0,0,1-.14-1h.692a2.235,2.235,0,0,0,.482,1.535,1.691,1.691,0,0,0,1.333.543,2.077,2.077,0,0,0,.833-.155,1.649,1.649,0,0,0,.585-.412,1.677,1.677,0,0,0,.341-.6,2.349,2.349,0,0,0,.112-.73V947.7Zm4.605,4.8a3.178,3.178,0,0,1-1.2-.206,2.428,2.428,0,0,1-.838-.548,2.2,2.2,0,0,1-.5-.791,2.922,2.922,0,0,1,.056-2.078,2.143,2.143,0,0,1,.6-.786,2.5,2.5,0,0,1,.9-.454,4.09,4.09,0,0,1,1.114-.145.66.66,0,0,0,.009-.122v-.112a.99.99,0,0,0-.108-.5,1.007,1.007,0,0,0-.271-.309,1.888,1.888,0,0,0-.351-.206,3.453,3.453,0,0,1-.351-.182.9.9,0,0,1-.272-.248.659.659,0,0,1-.107-.393h.786a.389.389,0,0,0,.1.281,1,1,0,0,0,.239.182c.094.053.2.109.313.169a1.193,1.193,0,0,1,.314.234,1.223,1.223,0,0,1,.239.374,1.556,1.556,0,0,1,.1.6c0,.05,0,.1,0,.15s-.008.1-.014.159a2.976,2.976,0,0,1,.646.224,2.179,2.179,0,0,1,1.091,1.165,2.728,2.728,0,0,1,.182,1.053,2.781,2.781,0,0,1-.159.936,2.152,2.152,0,0,1-.491.791,2.429,2.429,0,0,1-.838.548,3.15,3.15,0,0,1-1.189.206Zm0-.58a2.039,2.039,0,0,0,1.46-.5,1.841,1.841,0,0,0,.524-1.4,2.52,2.52,0,0,0-.145-.908,1.509,1.509,0,0,0-.407-.6,1.64,1.64,0,0,0-.627-.337,3.059,3.059,0,0,0-1.61,0,1.689,1.689,0,0,0-.632.337,1.53,1.53,0,0,0-.416.6,2.451,2.451,0,0,0-.149.908,1.822,1.822,0,0,0,.533,1.4,2.074,2.074,0,0,0,1.469.5Zm8.891-3.276q0,.243,0,.576t-.023.786q-.019.454-.056,1.048t-.1,1.352h-.692q.066-.777.1-1.371T299.6,950q.014-.445.019-.772t0-.571a5.8,5.8,0,0,0-.116-1.268,2.234,2.234,0,0,0-.342-.819,1.241,1.241,0,0,0-.562-.44,2.108,2.108,0,0,0-.767-.131,2.188,2.188,0,0,0-.81.135,1.231,1.231,0,0,0-.566.463,2.346,2.346,0,0,0-.332.87,7.168,7.168,0,0,0-.107,1.357q0,.244,0,.571t.023.763q.019.436.056.992t.1,1.259h-.692q-.112-1.161-.15-1.924t-.037-1.268v-.571a5.1,5.1,0,0,1,.22-1.642,2.559,2.559,0,0,1,.571-.983,1.775,1.775,0,0,1,.8-.473,3.48,3.48,0,0,1,1.825,0,1.776,1.776,0,0,1,.8.473,2.517,2.517,0,0,1,.566.983,5.2,5.2,0,0,1,.215,1.642Zm1.91,1.376a2.116,2.116,0,0,0,.126.73,1.641,1.641,0,0,0,.384.6,1.89,1.89,0,0,0,.641.412,2.423,2.423,0,0,0,.908.155,2.542,2.542,0,0,0,.828-.126,1.812,1.812,0,0,0,.632-.36,1.56,1.56,0,0,0,.4-.571,1.928,1.928,0,0,0,.14-.749,2.331,2.331,0,0,0-.145-.884,1.853,1.853,0,0,0-.341-.562,1.274,1.274,0,0,0-.407-.3,1.085,1.085,0,0,0-.332-.1.8.8,0,0,1-.557-.253.773.773,0,0,1-.2-.534v-.552h.655v.411a.41.41,0,0,0,.074.262.528.528,0,0,0,.309.14,3.432,3.432,0,0,1,.4.159,1.947,1.947,0,0,1,.547.389,2.344,2.344,0,0,1,.482.711,2.669,2.669,0,0,1,.206,1.119,2.527,2.527,0,0,1-.159.88,2.156,2.156,0,0,1-.482.763,2.4,2.4,0,0,1-.828.538,3.15,3.15,0,0,1-1.189.206,4.419,4.419,0,0,1-.875-.1,2.726,2.726,0,0,1-.908-.365,2.123,2.123,0,0,1-1.006-1.933V945.43h.693v4.6Zm9.892,0a2.118,2.118,0,0,0,.127.73,1.642,1.642,0,0,0,.384.6,1.891,1.891,0,0,0,.641.412,2.423,2.423,0,0,0,.908.155,2.542,2.542,0,0,0,.828-.126,1.813,1.813,0,0,0,.631-.36,1.555,1.555,0,0,0,.4-.571,1.928,1.928,0,0,0,.14-.749,2.331,2.331,0,0,0-.145-.884,1.863,1.863,0,0,0-.342-.562,1.269,1.269,0,0,0-.407-.3,1.087,1.087,0,0,0-.332-.1.8.8,0,0,1-.557-.253.773.773,0,0,1-.2-.534v-.552h.655v.411a.41.41,0,0,0,.075.262.526.526,0,0,0,.309.14,3.433,3.433,0,0,1,.4.159,1.952,1.952,0,0,1,.548.389,2.337,2.337,0,0,1,.482.711,2.662,2.662,0,0,1,.206,1.119,2.517,2.517,0,0,1-.159.88,2.148,2.148,0,0,1-.482.763,2.4,2.4,0,0,1-.828.538,3.15,3.15,0,0,1-1.189.206,4.426,4.426,0,0,1-.875-.1,2.724,2.724,0,0,1-.908-.365,2.257,2.257,0,0,1-.716-.73,2.235,2.235,0,0,1-.29-1.2V945.43h.692v4.6Zm8.677-4.6a1.424,1.424,0,0,0,.2.777,2.6,2.6,0,0,0,.487.562q.291.253.632.5a3.619,3.619,0,0,1,.632.59,2.99,2.99,0,0,1,.487.833,3.327,3.327,0,0,1,.2,1.231,3.911,3.911,0,0,1-.127,1.015,2.137,2.137,0,0,1-.412.819,1.947,1.947,0,0,1-.763.548,3.524,3.524,0,0,1-2.387-.014,2.175,2.175,0,0,1-.829-.6,2.485,2.485,0,0,1-.477-.9,3.971,3.971,0,0,1-.154-1.137v-.683h.692v.674a3.177,3.177,0,0,0,.126.922,2.137,2.137,0,0,0,.37.721,1.649,1.649,0,0,0,.613.473,2.069,2.069,0,0,0,.866.169,2.2,2.2,0,0,0,.838-.14,1.35,1.35,0,0,0,.552-.4,1.632,1.632,0,0,0,.3-.641,3.621,3.621,0,0,0,.094-.865,2.424,2.424,0,0,0-.2-1.049,2.83,2.83,0,0,0-.5-.734,4.577,4.577,0,0,0-.655-.566,5.842,5.842,0,0,1-.655-.538,2.682,2.682,0,0,1-.5-.65,1.863,1.863,0,0,1-.2-.908Zm6.365,0a1.423,1.423,0,0,0,.2.777,2.6,2.6,0,0,0,.487.562q.291.253.632.5a3.636,3.636,0,0,1,.631.59,2.986,2.986,0,0,1,.487.833,3.335,3.335,0,0,1,.2,1.231,3.908,3.908,0,0,1-.127,1.015,2.136,2.136,0,0,1-.412.819,1.946,1.946,0,0,1-.763.548,3.524,3.524,0,0,1-2.387-.014,2.173,2.173,0,0,1-.828-.6,2.487,2.487,0,0,1-.478-.9,3.987,3.987,0,0,1-.154-1.137v-.683h.692v.674a3.159,3.159,0,0,0,.127.922,2.13,2.13,0,0,0,.37.721,1.644,1.644,0,0,0,.613.473,2.07,2.07,0,0,0,.866.169,2.207,2.207,0,0,0,.838-.14,1.353,1.353,0,0,0,.552-.4,1.632,1.632,0,0,0,.3-.641,3.625,3.625,0,0,0,.094-.865,2.423,2.423,0,0,0-.2-1.049,2.807,2.807,0,0,0-.5-.734,4.573,4.573,0,0,0-.655-.566,5.833,5.833,0,0,1-.655-.538,2.681,2.681,0,0,1-.5-.65,1.863,1.863,0,0,1-.2-.908Zm3.847,4.493a2.855,2.855,0,0,1,.169-.974,2.253,2.253,0,0,1,.51-.819,2.489,2.489,0,0,1,.861-.562,3.24,3.24,0,0,1,1.222-.21,4.016,4.016,0,0,1,.73.075,4.142,4.142,0,0,0,.113-.851.476.476,0,0,0-.276-.44,1.518,1.518,0,0,0-.725-.15,1.494,1.494,0,0,0-.744.155.51.51,0,0,0-.267.472h-.721a1.011,1.011,0,0,1,.14-.538,1.137,1.137,0,0,1,.374-.374,1.772,1.772,0,0,1,.533-.215,2.693,2.693,0,0,1,.617-.07,2.2,2.2,0,0,1,1.254.318.959.959,0,0,1,.468.824,4.478,4.478,0,0,1-.14,1.067,2.238,2.238,0,0,1,1.058.95,2.717,2.717,0,0,1,.346,1.343,2.845,2.845,0,0,1-.169.973,2.34,2.34,0,0,1-.51.828,2.412,2.412,0,0,1-.861.571,3.645,3.645,0,0,1-2.443,0,2.415,2.415,0,0,1-.861-.571,2.346,2.346,0,0,1-.51-.828,2.855,2.855,0,0,1-.169-.973Zm.692,0a2.224,2.224,0,0,0,.14.8,1.823,1.823,0,0,0,.4.632,1.77,1.77,0,0,0,.646.412,2.727,2.727,0,0,0,1.755,0,1.761,1.761,0,0,0,.65-.412,1.823,1.823,0,0,0,.4-.632,2.377,2.377,0,0,0,0-1.61,1.728,1.728,0,0,0-1.053-1.034,2.723,2.723,0,0,0-1.755,0,1.8,1.8,0,0,0-.646.407,1.775,1.775,0,0,0-.4.627,2.225,2.225,0,0,0-.14.805Zm10.427-2.218a1.67,1.67,0,0,0-.458-1.3,1.974,1.974,0,0,0-1.366-.416,2.33,2.33,0,0,0-.9.14,1.215,1.215,0,0,0-.487.351,1.115,1.115,0,0,0-.215.449q-.051.239-.089.435h-.637q.01-.131.038-.328a2.011,2.011,0,0,1,.107-.412,2.067,2.067,0,0,1,.225-.431,1.479,1.479,0,0,1,.4-.388,2.175,2.175,0,0,1,.627-.281,3.331,3.331,0,0,1,.908-.108,4.238,4.238,0,0,1,.9.1,2.31,2.31,0,0,1,.819.346,1.845,1.845,0,0,1,.594.683,2.368,2.368,0,0,1,.229,1.109v2.452a2.359,2.359,0,0,1-.271,1.2,2.176,2.176,0,0,1-.674.73,2.5,2.5,0,0,1-.852.365,3.817,3.817,0,0,1-.805.1,2.618,2.618,0,0,1-1.123-.22,2.14,2.14,0,0,1-.767-.59,2.4,2.4,0,0,1-.44-.847,3.531,3.531,0,0,1-.14-1h.692a2.235,2.235,0,0,0,.482,1.535,1.691,1.691,0,0,0,1.334.543,2.074,2.074,0,0,0,.833-.155,1.648,1.648,0,0,0,.585-.412,1.677,1.677,0,0,0,.341-.6,2.351,2.351,0,0,0,.112-.73V947.7Zm2.771,2.414a1.894,1.894,0,0,0,.131.712,1.563,1.563,0,0,0,.393.571,1.876,1.876,0,0,0,.65.384,2.649,2.649,0,0,0,.9.14,2.205,2.205,0,0,0,1.46-.454,1.663,1.663,0,0,0,.543-1.352,2.177,2.177,0,0,0-.16-.889,1.505,1.505,0,0,0-.435-.576,1.641,1.641,0,0,0-.655-.309,3.554,3.554,0,0,0-.809-.089,2.639,2.639,0,0,0-.8.117,1.8,1.8,0,0,0-.641.351,1.622,1.622,0,0,0-.426.585,1.991,1.991,0,0,0-.154.809Zm3.987-4.633v.618h-2.518q-.449,0-.734.014a1.03,1.03,0,0,0-.445.1.455.455,0,0,0-.215.286,2.221,2.221,0,0,0-.056.571l.019,1.516a3.056,3.056,0,0,1,.917-.641,2.841,2.841,0,0,1,1.235-.266,3.891,3.891,0,0,1,.922.112,2.233,2.233,0,0,1,.833.393,2.057,2.057,0,0,1,.6.749,2.679,2.679,0,0,1,.229,1.179,2.63,2.63,0,0,1-.159.917,2.11,2.11,0,0,1-.482.758,2.276,2.276,0,0,1-.828.52,3.347,3.347,0,0,1-1.189.192,5.119,5.119,0,0,1-.875-.085,2.727,2.727,0,0,1-.908-.332,2.124,2.124,0,0,1-.716-.7,2.167,2.167,0,0,1-.29-1.189v-2.995a2.58,2.58,0,0,1,.159-1.02,1.029,1.029,0,0,1,.445-.51,1.583,1.583,0,0,1,.688-.173q.4-.019.88-.019Zm2,3.472a3.836,3.836,0,0,1,.206-1.249,3.329,3.329,0,0,1,.608-1.081,3.375,3.375,0,0,1,.978-.791,3.239,3.239,0,0,1,1.324-.37v-.14h.655v.14a3.427,3.427,0,0,1,1.343.36,3.27,3.27,0,0,1,.992.782,3.339,3.339,0,0,1,.617,1.085,3.9,3.9,0,0,1-.019,2.583,3.416,3.416,0,0,1-.674,1.133,3.317,3.317,0,0,1-1.09.8,3.8,3.8,0,0,1-2.957,0,3.267,3.267,0,0,1-1.086-.8,3.463,3.463,0,0,1-.669-1.133,3.86,3.86,0,0,1-.229-1.319Zm3.116-2.967a2.65,2.65,0,0,0-1.778.931,2.883,2.883,0,0,0-.51.9,3.457,3.457,0,0,0,.023,2.283,2.959,2.959,0,0,0,.576.95,2.623,2.623,0,0,0,.88.636,2.716,2.716,0,0,0,1.128.23,2.773,2.773,0,0,0,1.142-.23,2.665,2.665,0,0,0,.889-.636,2.924,2.924,0,0,0,.58-.95,3.3,3.3,0,0,0,.206-1.179,3.239,3.239,0,0,0-.183-1.1,2.884,2.884,0,0,0-.51-.9,2.7,2.7,0,0,0-.786-.637,2.664,2.664,0,0,0-1-.3v3.557h-.655v-3.557Zm9.182.945a1.886,1.886,0,0,1,.3-.529,2.639,2.639,0,0,1,.5-.482,2.886,2.886,0,0,1,.636-.356,2.177,2.177,0,0,1,2.237.426,2.487,2.487,0,0,1,.477,1.643l-.094,4.773h-.692l.094-4.549a2.292,2.292,0,0,0-.356-1.385,1.275,1.275,0,0,0-1.1-.478,1.3,1.3,0,0,0-.711.2,1.684,1.684,0,0,0-.52.529,2.559,2.559,0,0,0-.318.781,4.077,4.077,0,0,0-.108.954v1.685h-.7v-1.685a4.077,4.077,0,0,0-.107-.954,2.57,2.57,0,0,0-.318-.781,1.684,1.684,0,0,0-.52-.529,1.3,1.3,0,0,0-.711-.2,1.275,1.275,0,0,0-1.095.478,2.289,2.289,0,0,0-.356,1.385l.094,4.549h-.693l-.094-4.773a2.487,2.487,0,0,1,.478-1.643,2.177,2.177,0,0,1,2.237-.426,2.884,2.884,0,0,1,.637.356,2.637,2.637,0,0,1,.5.482A1.712,1.712,0,0,1,363.192,946.937Z" transform="translate(-114.653 -27.094)" fill="#fff" fill-rule="evenodd"/>
  </g>
</svg>
