<svg xmlns="http://www.w3.org/2000/svg" xmlns:xlink="http://www.w3.org/1999/xlink" width="274" height="150" viewBox="0 0 274 150">
  <defs>
    <clipPath id="clip-path">
      <rect id="Rectangle_2622" data-name="Rectangle 2622" width="274" height="150" rx="6" transform="translate(-9078.449 19022)" fill="#f6fbfd" stroke="rgba(112,112,112,0.2)" stroke-width="1" opacity="0.004"/>
    </clipPath>
  </defs>
  <g id="Mask_Group_9" data-name="Mask Group 9" transform="translate(9078.449 -19022)" clip-path="url(#clip-path)">
    <g id="Website" transform="translate(-9069.494 18670.217)">
      <path id="Path_5397" data-name="Path 5397" d="M779.135,469.181,472.747,779.466a95.4,95.4,0,0,1-134.651,0L27.809,473.082a95.405,95.405,0,0,1,0-134.653L334.193,28.142a95.4,95.4,0,0,1,134.652,0L779.135,334.527A95.413,95.413,0,0,1,779.135,469.181ZM740.1,447.712,449.329,740.438c-23.417,23.417-64.4,23.417-89.767,0L68.79,449.665c-25.369-23.418-25.369-64.4-1.952-89.769L357.611,69.124c25.369-25.369,64.4-25.369,89.77-1.952L740.1,357.944A66.134,66.134,0,0,1,740.1,447.712Z" fill="#f6fbfd" fill-rule="evenodd"/>
      <path id="Path_5398" data-name="Path 5398" d="M615.794,402.69C531.88,474.9,447.966,549.049,364.052,623.207c-31.225,25.37-76.11,21.469-103.431-7.807C188.416,531.486,114.259,447.573,42.054,361.71,14.733,332.436,18.636,285.6,47.908,260.23,131.823,186.074,215.737,113.869,301.6,39.712c29.272-25.369,76.107-21.466,101.477,7.806C477.238,131.432,549.443,215.346,623.6,299.26,648.967,330.484,647.018,375.367,615.794,402.69Zm-29.272-19.516C506.51,453.427,428.45,521.73,348.438,590.034c-19.514,17.563-50.738,15.61-68.3-3.906-68.3-80.008-138.556-158.068-206.858-238.08-17.563-19.516-15.612-50.739,3.9-68.3,80.011-70.254,158.071-138.556,238.082-208.81,21.466-17.563,50.738-13.661,68.3,5.854C453.82,156.8,522.12,234.861,592.376,314.872,609.939,334.387,606.034,365.611,586.522,383.174Z" transform="translate(71.624 68.451)" fill="#f6fbfd" fill-rule="evenodd"/>
      <path id="Path_5399" data-name="Path 5399" d="M453.765,336.66q-99.006,64.061-198.011,128.126c-23.3,15.529-54.356,9.7-69.886-13.589C143.16,385.193,98.511,319.19,55.8,253.185c-15.53-23.3-7.765-54.356,15.53-69.886,66-42.708,130.066-85.416,196.069-130.066,23.3-15.53,56.3-7.765,71.826,15.53,42.711,66,85.419,132.007,128.126,196.069C482.884,288.126,477.062,321.13,453.765,336.66ZM434.35,319.19q-93.178,61.15-186.361,122.3c-15.53,9.707-36.885,5.822-46.591-9.707Q140.248,338.6,79.1,245.42c-9.707-15.53-5.824-36.884,9.706-46.591l186.365-122.3c15.53-9.706,36.881-5.824,46.589,9.706L444.058,272.6C453.765,288.126,449.884,309.482,434.35,319.19Z" transform="translate(144.824 136.015)" fill="#f6fbfd" fill-rule="evenodd"/>
      <path id="Path_5400" data-name="Path 5400" d="M291.3,274.22,150.527,312.268c-16.336,4.083-34.435-6.125-40.44-24.144l-.035-.1L72.032,149.238c-6.067-18.306,6.117-36.5,22.331-40.571L235.131,68.718c16.159-4.039,36.381,5.96,40.484,24.294l38.011,138.734c6.052,18.249-4.156,36.417-22.215,42.441Zm-8.719-17.192L149.4,293.179l-.108.04c-4.015,1.61-8.565.863-12.675-1.731a23.325,23.325,0,0,1-9.37-12.2L91.123,148.117l-.031-.1c-3.375-10.126,3.333-20.527,12.043-24.072L236.051,87.865c10.647-1.732,20.646,3.632,22.3,13.573l.016.1,36.163,131.327.033.1A18.538,18.538,0,0,1,282.583,257.028Z" transform="translate(213.787 204.829)" fill="#f6fbfd" fill-rule="evenodd"/>
    </g>
  </g>
</svg>
