<svg xmlns="http://www.w3.org/2000/svg" width="63" height="63" viewBox="0 0 63 63">
  <g id="Group_1936" data-name="Group 1936" transform="translate(-282 -892)">
    <rect id="Rectangle_2461" data-name="Rectangle 2461" width="63" height="63" rx="12" transform="translate(282 892)" fill="#574d44" opacity="0.1"/>
    <path id="Map_1_" data-name="Map (1)" d="M52.107,25l-.248.046-8.271,3.206L34.294,25l-8.736,2.943a.781.781,0,0,0-.558.744v23.42a.767.767,0,0,0,.774.775l.248-.046,8.271-3.206,9.294,3.253,8.736-2.943a.781.781,0,0,0,.558-.744V25.774A.767.767,0,0,0,52.107,25ZM35.843,28.826l6.2,2.169V49.055l-6.2-2.169ZM28.1,30.359l4.647-1.564V46.918l-4.647,1.8ZM49.783,47.522l-4.647,1.564V30.979l4.647-1.8Z" transform="translate(274.56 884.56)" fill="#574d44"/>
  </g>
</svg>
