<svg xmlns="http://www.w3.org/2000/svg" width="63" height="63" viewBox="0 0 63 63">
  <g id="Group_1954" data-name="Group 1954" transform="translate(-282 -657)">
    <rect id="Rectangle_2460" data-name="Rectangle 2460" width="63" height="63" rx="12" transform="translate(282 657)" fill="#ddab55" opacity="0.1"/>
    <path id="Idea" d="M50.011,56.3A2.092,2.092,0,0,0,52.1,58.389h8.345A2.092,2.092,0,0,0,62.527,56.3V54.217H50.011Zm6.258-39.637a14.6,14.6,0,0,0-8.345,26.577v4.715a2.092,2.092,0,0,0,2.086,2.086H62.527a2.092,2.092,0,0,0,2.086-2.086V43.244a14.6,14.6,0,0,0-8.345-26.577Zm4.172,24.408v4.8H52.1v-4.8c-3.171-2.232-6.258-4.527-6.258-9.8a10.431,10.431,0,0,1,20.861,0C66.7,36.464,63.55,38.884,60.441,41.074Z" transform="translate(257.23 650.972)" fill="#ddab55"/>
  </g>
</svg>
