<svg width="20" height="20" viewBox="0 0 20 20" fill="none" xmlns="http://www.w3.org/2000/svg">
<g opacity="0.4">
<path d="M9.09766 14.8618C10.2622 14.8618 11.3535 14.5103 12.2617 13.9097L15.4697 17.125C15.6821 17.3301 15.9531 17.4326 16.2461 17.4326C16.854 17.4326 17.3008 16.9565 17.3008 16.356C17.3008 16.0776 17.2056 15.8066 17.0005 15.6016L13.8145 12.4009C14.4736 11.4707 14.8618 10.3281 14.8618 9.09766C14.8618 5.92627 12.269 3.3335 9.09766 3.3335C5.92627 3.3335 3.3335 5.92627 3.3335 9.09766C3.3335 12.269 5.92627 14.8618 9.09766 14.8618ZM9.09766 13.3237C6.77588 13.3237 4.87158 11.4194 4.87158 9.09766C4.87158 6.7832 6.77588 4.87158 9.09766 4.87158C11.4194 4.87158 13.3237 6.7832 13.3237 9.09766C13.3237 11.4194 11.4194 13.3237 9.09766 13.3237Z" fill="black" fill-opacity="0.96"/>
</g>
</svg>
