<svg xmlns="http://www.w3.org/2000/svg" width="63" height="63" viewBox="0 0 63 63">
  <g id="Group_1934" data-name="Group 1934" transform="translate(-994 -657)">
    <rect id="Rectangle_2461" data-name="Rectangle 2461" width="63" height="63" rx="12" transform="translate(994 657)" fill="#6a8680" opacity="0.1"/>
    <path id="Freemeal" d="M47.553,29.443l10.664,8v16H36.889v-16Zm0-4.443L33.334,35.664V56.993H61.772V35.664Zm-.889,11.553v5.332h-.889V36.553H44v5.332H43.11V36.553H41.332v5.332A2.663,2.663,0,0,0,44,44.551v7.109h1.777V44.551a2.663,2.663,0,0,0,2.666-2.666V36.553Zm2.666,3.555V45.44h1.777v6.221h1.778V36.553A3.565,3.565,0,0,0,49.33,40.108Z" transform="translate(977.947 647.504)" fill="#6a8680"/>
  </g>
</svg>
