<svg xmlns="http://www.w3.org/2000/svg" width="63" height="63" viewBox="0 0 63 63">
  <g id="Group_2532" data-name="Group 2532" transform="translate(-21 -22)">
    <g id="Group_1960" data-name="Group 1960">
      <rect id="Rectangle_2609" data-name="Rectangle 2609" width="63" height="63" rx="12" transform="translate(21 22)" fill="#5d8e3e" opacity="0.1"/>
    </g>
    <path id="book_online_FILL0_wght400_GRAD0_opsz48" d="M26.305,20.344v2.409a1.456,1.456,0,0,1-1.482,1.482H15.929a1.456,1.456,0,0,1-1.482-1.482V20.344a.593.593,0,0,1,.148-.371,1.027,1.027,0,0,1,.408-.3,1.674,1.674,0,0,0,.667-.537,1.47,1.47,0,0,0,0-1.668A1.674,1.674,0,0,0,15,16.934a1.027,1.027,0,0,1-.408-.3.593.593,0,0,1-.148-.371V13.858a1.456,1.456,0,0,1,1.482-1.482h8.894a1.456,1.456,0,0,1,1.482,1.482v2.409a.593.593,0,0,1-.148.371,1.027,1.027,0,0,1-.408.3,1.674,1.674,0,0,0-.667.537,1.47,1.47,0,0,0,0,1.668,1.674,1.674,0,0,0,.667.537,1.027,1.027,0,0,1,.408.3A.593.593,0,0,1,26.305,20.344Zm-5.929-4.262a.76.76,0,1,0-.519-.222A.711.711,0,0,0,20.376,16.082Zm0,2.965a.76.76,0,1,0-.519-.222A.711.711,0,0,0,20.376,19.047Zm0,2.965a.76.76,0,1,0-.519-.222A.711.711,0,0,0,20.376,22.011Zm-8.153,12.6A2.214,2.214,0,0,1,10,32.387V4.223A2.214,2.214,0,0,1,12.223,2H28.529a2.214,2.214,0,0,1,2.223,2.223V32.387a2.214,2.214,0,0,1-2.223,2.223Zm0-5.559H28.529V7.559H12.223Zm0,2.223v1.112H28.529V31.276Zm0-25.94H28.529V4.223H12.223Zm0-1.112v0Zm0,28.164v0Z" transform="translate(32.124 35.194)" fill="#5d8e3e"/>
  </g>
</svg>
