<svg xmlns="http://www.w3.org/2000/svg" width="63" height="63" viewBox="0 0 63 63">
  <g id="Group_1935" data-name="Group 1935" transform="translate(-992 -892)">
    <rect id="Rectangle_2461" data-name="Rectangle 2461" width="63" height="63" rx="12" transform="translate(992 892)" fill="#068484" opacity="0.1"/>
    <path id="Waste" d="M35.935,7.565H30.261V0H3.783A3.794,3.794,0,0,0,0,3.783v20.8H3.783a5.674,5.674,0,0,0,11.348,0H26.479a5.674,5.674,0,0,0,11.348,0h3.783V15.131ZM34.99,10.4,38.7,15.131H30.261V10.4ZM9.457,26.479a1.891,1.891,0,1,1,1.891-1.891A1.9,1.9,0,0,1,9.457,26.479Zm4.2-5.674a5.606,5.606,0,0,0-8.4,0H3.783V3.783h22.7V20.8Zm18.5,5.674a1.891,1.891,0,1,1,1.891-1.891A1.9,1.9,0,0,1,32.153,26.479Z" transform="translate(1003 908)" fill="#068484"/>
  </g>
</svg>
